<svg xmlns="http://www.w3.org/2000/svg" xmlns:xlink="http://www.w3.org/1999/xlink" width="500" zoomAndPan="magnify" viewBox="0 0 375 374.999991" height="500" preserveAspectRatio="xMidYMid meet" version="1.0"><defs><g/><clipPath id="129b66711c"><path d="M 84.828125 46.125 L 290.328125 46.125 L 290.328125 283.125 L 84.828125 283.125 Z M 84.828125 46.125 " clip-rule="nonzero"/></clipPath></defs><g clip-path="url(#129b66711c)"><path fill="#ffbf00" d="M 191.757812 48.664062 L 238.800781 75.820312 L 285.847656 102.972656 L 290.164062 105.445312 L 290.164062 115.234375 L 285.847656 117.707031 L 234.539062 147.332031 L 187.496094 120.179688 L 149.078125 142.386719 L 149.078125 186.855469 L 187.496094 209.0625 L 234.539062 181.90625 L 251.644531 191.800781 C 264.484375 199.21875 277.324219 206.640625 290.164062 214.058594 L 290.164062 223.847656 L 285.847656 226.320312 L 238.800781 253.476562 L 191.757812 280.628906 L 187.496094 283.101562 L 183.230469 280.628906 L 170.390625 273.207031 L 193.914062 259.632812 C 217.4375 246.054688 240.960938 232.476562 264.429688 218.902344 L 234.488281 201.640625 L 157.550781 246.160156 L 151.132812 249.84375 L 140.449219 256 L 136.1875 253.527344 L 89.140625 226.425781 L 84.828125 223.902344 L 84.828125 105.5 L 89.140625 103.023438 L 136.1875 75.871094 L 140.449219 73.398438 L 144.710938 75.871094 L 234.488281 127.707031 L 264.429688 110.445312 L 230.226562 90.710938 L 204.808594 75.925781 L 187.496094 65.925781 L 170.390625 56.03125 L 183.230469 48.664062 L 187.496094 46.191406 Z M 170.390625 219.007812 L 131.871094 196.746094 L 131.871094 132.652344 L 170.390625 110.390625 L 140.449219 93.132812 L 102.035156 115.339844 L 102.035156 214.058594 L 140.449219 236.265625 Z M 170.390625 219.007812 " fill-opacity="1" fill-rule="evenodd"/></g><g fill="#ffffff" fill-opacity="1"><g transform="translate(122.663206, 324.111922)"><g><path d="M 6 0.234375 C 4.945312 0.234375 4.019531 0.00390625 3.21875 -0.453125 C 2.425781 -0.910156 1.816406 -1.53125 1.390625 -2.3125 C 0.972656 -3.09375 0.765625 -3.960938 0.765625 -4.921875 C 0.765625 -5.867188 0.988281 -6.722656 1.4375 -7.484375 C 1.882812 -8.253906 2.507812 -8.859375 3.3125 -9.296875 C 4.113281 -9.742188 5.007812 -9.96875 6 -9.96875 C 6.882812 -9.96875 7.6875 -9.789062 8.40625 -9.4375 C 9.132812 -9.09375 9.734375 -8.585938 10.203125 -7.921875 L 9.421875 -7.34375 C 9.015625 -7.894531 8.519531 -8.3125 7.9375 -8.59375 C 7.351562 -8.875 6.710938 -9.015625 6.015625 -9.015625 C 5.242188 -9.015625 4.535156 -8.835938 3.890625 -8.484375 C 3.242188 -8.128906 2.726562 -7.632812 2.34375 -7 C 1.96875 -6.363281 1.78125 -5.644531 1.78125 -4.84375 C 1.78125 -4.039062 1.96875 -3.320312 2.34375 -2.6875 C 2.71875 -2.0625 3.226562 -1.566406 3.875 -1.203125 C 4.53125 -0.835938 5.257812 -0.65625 6.0625 -0.65625 C 6.738281 -0.65625 7.363281 -0.789062 7.9375 -1.0625 C 8.519531 -1.34375 9.035156 -1.75 9.484375 -2.28125 L 10.25 -1.6875 C 9.757812 -1.0625 9.148438 -0.582031 8.421875 -0.25 C 7.691406 0.0703125 6.882812 0.234375 6 0.234375 Z M 6 0.234375 "/></g></g></g><g fill="#ffffff" fill-opacity="1"><g transform="translate(144.533622, 324.111922)"><g><path d="M 5.890625 0.25 C 4.921875 0.25 4.046875 0.0195312 3.265625 -0.4375 C 2.484375 -0.90625 1.867188 -1.523438 1.421875 -2.296875 C 0.984375 -3.078125 0.765625 -3.921875 0.765625 -4.828125 C 0.765625 -5.773438 0.988281 -6.640625 1.4375 -7.421875 C 1.882812 -8.210938 2.492188 -8.832031 3.265625 -9.28125 C 4.046875 -9.738281 4.894531 -9.96875 5.8125 -9.96875 C 6.78125 -9.96875 7.660156 -9.742188 8.453125 -9.296875 C 9.242188 -8.847656 9.867188 -8.234375 10.328125 -7.453125 C 10.785156 -6.671875 11.015625 -5.804688 11.015625 -4.859375 C 11.015625 -3.921875 10.785156 -3.0625 10.328125 -2.28125 C 9.878906 -1.5 9.265625 -0.878906 8.484375 -0.421875 C 7.703125 0.0234375 6.835938 0.25 5.890625 0.25 Z M 5.859375 -0.703125 C 6.609375 -0.703125 7.300781 -0.878906 7.9375 -1.234375 C 8.570312 -1.597656 9.070312 -2.097656 9.4375 -2.734375 C 9.8125 -3.367188 10 -4.082031 10 -4.875 C 10 -5.664062 9.804688 -6.378906 9.421875 -7.015625 C 9.035156 -7.648438 8.523438 -8.140625 7.890625 -8.484375 C 7.265625 -8.835938 6.585938 -9.015625 5.859375 -9.015625 C 5.148438 -9.015625 4.476562 -8.835938 3.84375 -8.484375 C 3.21875 -8.128906 2.71875 -7.628906 2.34375 -6.984375 C 1.96875 -6.347656 1.78125 -5.628906 1.78125 -4.828125 C 1.78125 -4.046875 1.96875 -3.34375 2.34375 -2.71875 C 2.71875 -2.09375 3.210938 -1.597656 3.828125 -1.234375 C 4.453125 -0.878906 5.128906 -0.703125 5.859375 -0.703125 Z M 5.859375 -0.703125 "/></g></g></g><g fill="#ffffff" fill-opacity="1"><g transform="translate(167.149118, 324.111922)"><g><path d="M 7.828125 -9.734375 L 8.8125 -9.734375 L 8.8125 0 L 8.59375 0 L 2.15625 -7.359375 L 2.15625 0 L 1.171875 0 L 1.171875 -9.734375 L 1.375 -9.734375 L 7.828125 -2.28125 Z M 7.828125 -9.734375 "/></g></g></g><g fill="#ffffff" fill-opacity="1"><g transform="translate(187.96287, 324.111922)"><g><path d="M 2.40625 -8.78125 L 0.21875 -8.78125 L 0.21875 -9.734375 L 5.546875 -9.734375 L 5.546875 -8.78125 L 3.390625 -8.78125 L 3.390625 0 L 2.40625 0 Z M 2.40625 -8.78125 "/></g></g></g><g fill="#ffffff" fill-opacity="1"><g transform="translate(204.577069, 324.111922)"><g><path d="M 3.953125 -9.734375 C 5.066406 -9.734375 5.898438 -9.5 6.453125 -9.03125 C 7.003906 -8.570312 7.28125 -7.941406 7.28125 -7.140625 C 7.28125 -6.554688 7.140625 -6.070312 6.859375 -5.6875 C 6.578125 -5.300781 6.179688 -5.007812 5.671875 -4.8125 C 5.171875 -4.625 4.582031 -4.53125 3.90625 -4.53125 L 7.40625 0 L 6.203125 0 L 2.765625 -4.53125 L 2.15625 -4.53125 L 2.15625 0 L 1.171875 0 L 1.171875 -9.734375 Z M 3.90625 -5.46875 C 4.65625 -5.46875 5.234375 -5.601562 5.640625 -5.875 C 6.054688 -6.144531 6.265625 -6.566406 6.265625 -7.140625 C 6.265625 -7.640625 6.085938 -8.035156 5.734375 -8.328125 C 5.378906 -8.628906 4.847656 -8.78125 4.140625 -8.78125 L 2.15625 -8.78125 L 2.15625 -5.46875 Z M 3.90625 -5.46875 "/></g></g></g><g fill="#ffffff" fill-opacity="1"><g transform="translate(223.440055, 324.111922)"><g><path d="M 5.890625 0.25 C 4.921875 0.25 4.046875 0.0195312 3.265625 -0.4375 C 2.484375 -0.90625 1.867188 -1.523438 1.421875 -2.296875 C 0.984375 -3.078125 0.765625 -3.921875 0.765625 -4.828125 C 0.765625 -5.773438 0.988281 -6.640625 1.4375 -7.421875 C 1.882812 -8.210938 2.492188 -8.832031 3.265625 -9.28125 C 4.046875 -9.738281 4.894531 -9.96875 5.8125 -9.96875 C 6.78125 -9.96875 7.660156 -9.742188 8.453125 -9.296875 C 9.242188 -8.847656 9.867188 -8.234375 10.328125 -7.453125 C 10.785156 -6.671875 11.015625 -5.804688 11.015625 -4.859375 C 11.015625 -3.921875 10.785156 -3.0625 10.328125 -2.28125 C 9.878906 -1.5 9.265625 -0.878906 8.484375 -0.421875 C 7.703125 0.0234375 6.835938 0.25 5.890625 0.25 Z M 5.859375 -0.703125 C 6.609375 -0.703125 7.300781 -0.878906 7.9375 -1.234375 C 8.570312 -1.597656 9.070312 -2.097656 9.4375 -2.734375 C 9.8125 -3.367188 10 -4.082031 10 -4.875 C 10 -5.664062 9.804688 -6.378906 9.421875 -7.015625 C 9.035156 -7.648438 8.523438 -8.140625 7.890625 -8.484375 C 7.265625 -8.835938 6.585938 -9.015625 5.859375 -9.015625 C 5.148438 -9.015625 4.476562 -8.835938 3.84375 -8.484375 C 3.21875 -8.128906 2.71875 -7.628906 2.34375 -6.984375 C 1.96875 -6.347656 1.78125 -5.628906 1.78125 -4.828125 C 1.78125 -4.046875 1.96875 -3.34375 2.34375 -2.71875 C 2.71875 -2.09375 3.210938 -1.597656 3.828125 -1.234375 C 4.453125 -0.878906 5.128906 -0.703125 5.859375 -0.703125 Z M 5.859375 -0.703125 "/></g></g></g><g fill="#ffffff" fill-opacity="1"><g transform="translate(246.055548, 324.111922)"><g><path d="M 2.15625 -9.734375 L 2.15625 -0.953125 L 5.890625 -0.953125 L 5.890625 0 L 1.171875 0 L 1.171875 -9.734375 Z M 2.15625 -9.734375 "/></g></g></g></svg>